HIERARCHY
ROOT mixamorig:Hips
{
	OFFSET 0.000000 201.639420 0.000000
	CHANNELS 6 Xposition Yposition Zposition Xrotation Yrotation Zrotation
	JOINT mixamorig:Spine
	{
		OFFSET 0.006200 19.524994 -2.481800
		CHANNELS 3 Xrotation Yrotation Zrotation
		JOINT mixamorig:Spine1
		{
			OFFSET -0.000900 22.835007 -2.825400
			CHANNELS 3 Xrotation Yrotation Zrotation
			JOINT mixamorig:Spine2
			{
				OFFSET -0.020600 26.552490 -3.193300
				CHANNELS 3 Xrotation Yrotation Zrotation
				JOINT mixamorig:Neck
				{
					OFFSET -0.060000 30.701813 1.352200
					CHANNELS 3 Xrotation Yrotation Zrotation
					JOINT mixamorig:Head
					{
						OFFSET -0.087200 22.547607 3.670900
						CHANNELS 3 Xrotation Yrotation Zrotation
						JOINT mixamorig:HeadTop_End
						{
							OFFSET -0.830600 40.355194 7.893500
							CHANNELS 3 Xrotation Yrotation Zrotation
							End Site
							{
								OFFSET 0.000000 30.592346 0.000000
							}
						}
						JOINT mixamorig:RightEye
						{
							OFFSET -6.302100 18.118591 16.197100
							CHANNELS 3 Xrotation Yrotation Zrotation
							End Site
							{
								OFFSET 0.000000 30.592346 0.000000
							}
						}
						JOINT mixamorig:LeftEye
						{
							OFFSET 6.741500 18.382690 16.401899
							CHANNELS 3 Xrotation Yrotation Zrotation
							End Site
							{
								OFFSET 0.000000 30.592346 0.000000
							}
						}
					}
				}
				JOINT mixamorig:LeftShoulder
				{
					OFFSET 11.924900 18.230499 1.425400
					CHANNELS 3 Xrotation Yrotation Zrotation
					JOINT mixamorig:LeftArm
					{
						OFFSET 25.435989 -0.697632 -5.229300
						CHANNELS 3 Xrotation Yrotation Zrotation
						JOINT mixamorig:LeftForeArm
						{
							OFFSET 54.684776 0.000000 0.000000
							CHANNELS 3 Xrotation Yrotation Zrotation
							JOINT mixamorig:LeftHand
							{
								OFFSET 55.098175 0.000000 0.000000
								CHANNELS 3 Xrotation Yrotation Zrotation
								JOINT mixamorig:LeftHandMiddle1
								{
									OFFSET 23.369751 0.000000 0.000000
									CHANNELS 3 Xrotation Yrotation Zrotation
									JOINT mixamorig:LeftHandMiddle2
									{
										OFFSET 6.378677 0.000000 0.000000
										CHANNELS 3 Xrotation Yrotation Zrotation
										JOINT mixamorig:LeftHandMiddle3
										{
											OFFSET 6.148331 0.000000 0.000000
											CHANNELS 3 Xrotation Yrotation Zrotation
											JOINT mixamorig:LeftHandMiddle4
											{
												OFFSET 6.582504 0.000000 0.000000
												CHANNELS 3 Xrotation Yrotation Zrotation
												End Site
												{
													OFFSET -1.168900 6.395691 1.028606
												}
											}
										}
									}
								}
								JOINT mixamorig:LeftHandThumb1
								{
									OFFSET 7.235672 -3.848206 5.434273
									CHANNELS 3 Xrotation Yrotation Zrotation
									JOINT mixamorig:LeftHandThumb2
									{
										OFFSET 6.568451 -3.792297 3.792300
										CHANNELS 3 Xrotation Yrotation Zrotation
										JOINT mixamorig:LeftHandThumb3
										{
											OFFSET 6.063080 -3.500519 3.500518
											CHANNELS 3 Xrotation Yrotation Zrotation
											JOINT mixamorig:LeftHandThumb4
											{
												OFFSET 4.793182 -2.767334 2.767349
												CHANNELS 3 Xrotation Yrotation Zrotation
												End Site
												{
													OFFSET 0.101639 6.054260 1.275483
												}
											}
										}
									}
								}
								JOINT mixamorig:LeftHandIndex1
								{
									OFFSET 23.101074 -0.309540 4.992809
									CHANNELS 3 Xrotation Yrotation Zrotation
									JOINT mixamorig:LeftHandIndex2
									{
										OFFSET 6.226883 0.000000 0.000000
										CHANNELS 3 Xrotation Yrotation Zrotation
										JOINT mixamorig:LeftHandIndex3
										{
											OFFSET 6.094330 0.000000 0.000000
											CHANNELS 3 Xrotation Yrotation Zrotation
											JOINT mixamorig:LeftHandIndex4
											{
												OFFSET 5.482605 0.000000 0.000000
												CHANNELS 3 Xrotation Yrotation Zrotation
												End Site
												{
													OFFSET -1.427902 5.233032 0.797164
												}
											}
										}
									}
								}
								JOINT mixamorig:LeftHandRing1
								{
									OFFSET 22.299240 0.021149 -3.964172
									CHANNELS 3 Xrotation Yrotation Zrotation
									JOINT mixamorig:LeftHandRing2
									{
										OFFSET 6.321869 0.000000 0.000000
										CHANNELS 3 Xrotation Yrotation Zrotation
										JOINT mixamorig:LeftHandRing3
										{
											OFFSET 5.899796 0.000000 0.000000
											CHANNELS 3 Xrotation Yrotation Zrotation
											JOINT mixamorig:LeftHandRing4
											{
												OFFSET 6.517899 0.000000 0.000000
												CHANNELS 3 Xrotation Yrotation Zrotation
												End Site
												{
													OFFSET -1.637299 6.232208 0.980890
												}
											}
										}
									}
								}
								JOINT mixamorig:LeftHandPinky1
								{
									OFFSET 20.463791 -0.302338 -8.562233
									CHANNELS 3 Xrotation Yrotation Zrotation
									JOINT mixamorig:LeftHandPinky2
									{
										OFFSET 6.908646 0.000000 0.000000
										CHANNELS 3 Xrotation Yrotation Zrotation
										JOINT mixamorig:LeftHandPinky3
										{
											OFFSET 4.622849 0.000000 0.000000
											CHANNELS 3 Xrotation Yrotation Zrotation
											JOINT mixamorig:LeftHandPinky4
											{
												OFFSET 5.216080 0.000000 0.000000
												CHANNELS 3 Xrotation Yrotation Zrotation
												End Site
												{
													OFFSET -0.606308 5.116241 0.814926
												}
											}
										}
									}
								}
							}
						}
					}
				}
				JOINT mixamorig:RightShoulder
				{
					OFFSET -12.001300 18.284088 1.348900
					CHANNELS 3 Xrotation Yrotation Zrotation
					JOINT mixamorig:RightArm
					{
						OFFSET -25.308500 -0.751312 -5.164599
						CHANNELS 3 Xrotation Yrotation Zrotation
						JOINT mixamorig:RightForeArm
						{
							OFFSET -54.684429 0.000000 0.000000
							CHANNELS 3 Xrotation Yrotation Zrotation
							JOINT mixamorig:RightHand
							{
								OFFSET -55.150291 0.000000 0.000000
								CHANNELS 3 Xrotation Yrotation Zrotation
								JOINT mixamorig:RightHandMiddle1
								{
									OFFSET -23.317566 0.000000 0.000000
									CHANNELS 3 Xrotation Yrotation Zrotation
									JOINT mixamorig:RightHandMiddle2
									{
										OFFSET -6.378403 0.000000 0.000000
										CHANNELS 3 Xrotation Yrotation Zrotation
										JOINT mixamorig:RightHandMiddle3
										{
											OFFSET -6.148193 0.000000 0.000000
											CHANNELS 3 Xrotation Yrotation Zrotation
											JOINT mixamorig:RightHandMiddle4
											{
												OFFSET -6.583389 0.000000 0.000000
												CHANNELS 3 Xrotation Yrotation Zrotation
												End Site
												{
													OFFSET 1.171692 6.395905 1.029786
												}
											}
										}
									}
								}
								JOINT mixamorig:RightHandThumb1
								{
									OFFSET -7.190521 -3.860474 5.435846
									CHANNELS 3 Xrotation Yrotation Zrotation
									JOINT mixamorig:RightHandThumb2
									{
										OFFSET -6.567429 -3.791718 3.791708
										CHANNELS 3 Xrotation Yrotation Zrotation
										JOINT mixamorig:RightHandThumb3
										{
											OFFSET -6.062469 -3.500153 3.500166
											CHANNELS 3 Xrotation Yrotation Zrotation
											JOINT mixamorig:RightHandThumb4
											{
												OFFSET -4.792618 -2.767029 2.767022
												CHANNELS 3 Xrotation Yrotation Zrotation
												End Site
												{
													OFFSET -0.100327 6.053253 1.276754
												}
											}
										}
									}
								}
								JOINT mixamorig:RightHandIndex1
								{
									OFFSET -23.048981 -0.310791 4.992554
									CHANNELS 3 Xrotation Yrotation Zrotation
									JOINT mixamorig:RightHandIndex2
									{
										OFFSET -6.227539 0.000000 0.000000
										CHANNELS 3 Xrotation Yrotation Zrotation
										JOINT mixamorig:RightHandIndex3
										{
											OFFSET -6.095047 0.000000 0.000000
											CHANNELS 3 Xrotation Yrotation Zrotation
											JOINT mixamorig:RightHandIndex4
											{
												OFFSET -5.484772 0.000000 0.000000
												CHANNELS 3 Xrotation Yrotation Zrotation
												End Site
												{
													OFFSET 1.420593 5.237305 0.797056
												}
											}
										}
									}
								}
								JOINT mixamorig:RightHandRing1
								{
									OFFSET -22.246323 0.020569 -3.963762
									CHANNELS 3 Xrotation Yrotation Zrotation
									JOINT mixamorig:RightHandRing2
									{
										OFFSET -6.322128 0.000000 0.000000
										CHANNELS 3 Xrotation Yrotation Zrotation
										JOINT mixamorig:RightHandRing3
										{
											OFFSET -5.900024 0.000000 0.000000
											CHANNELS 3 Xrotation Yrotation Zrotation
											JOINT mixamorig:RightHandRing4
											{
												OFFSET -6.518356 0.000000 0.000000
												CHANNELS 3 Xrotation Yrotation Zrotation
												End Site
												{
													OFFSET 1.636398 6.232697 0.982186
												}
											}
										}
									}
								}
								JOINT mixamorig:RightHandPinky1
								{
									OFFSET -20.411011 -0.303314 -8.561701
									CHANNELS 3 Xrotation Yrotation Zrotation
									JOINT mixamorig:RightHandPinky2
									{
										OFFSET -6.907349 0.000000 0.000000
										CHANNELS 3 Xrotation Yrotation Zrotation
										JOINT mixamorig:RightHandPinky3
										{
											OFFSET -4.623840 0.000000 0.000000
											CHANNELS 3 Xrotation Yrotation Zrotation
											JOINT mixamorig:RightHandPinky4
											{
												OFFSET -5.218353 0.000000 0.000000
												CHANNELS 3 Xrotation Yrotation Zrotation
												End Site
												{
													OFFSET 0.602097 5.118835 0.816273
												}
											}
										}
									}
								}
							}
						}
					}
				}
			}
		}
	}
	JOINT mixamorig:LeftUpLeg
	{
		OFFSET 18.168400 -13.561905 -0.039000
		CHANNELS 3 Xrotation Yrotation Zrotation
		JOINT mixamorig:LeftLeg
		{
			OFFSET 0.577358 -80.825211 -3.695000
			CHANNELS 3 Xrotation Yrotation Zrotation
			JOINT mixamorig:LeftFoot
			{
				OFFSET -0.577356 -83.370262 -6.520700
				CHANNELS 3 Xrotation Yrotation Zrotation
				JOINT mixamorig:LeftToeBase
				{
					OFFSET 0.750401 -20.798306 25.135401
					CHANNELS 3 Xrotation Yrotation Zrotation
					JOINT mixamorig:LeftToe_End
					{
						OFFSET -0.000500 0.001200 19.917799
						CHANNELS 3 Xrotation Yrotation Zrotation
						End Site
						{
							OFFSET 0.000000 19.917805 0.000000
						}
					}
				}
			}
		}
	}
	JOINT mixamorig:RightUpLeg
	{
		OFFSET -18.162500 -13.585098 -0.041000
		CHANNELS 3 Xrotation Yrotation Zrotation
		JOINT mixamorig:RightLeg
		{
			OFFSET -0.595024 -80.945297 -3.631900
			CHANNELS 3 Xrotation Yrotation Zrotation
			JOINT mixamorig:RightFoot
			{
				OFFSET 0.595024 -83.218193 -6.561200
				CHANNELS 3 Xrotation Yrotation Zrotation
				JOINT mixamorig:RightToeBase
				{
					OFFSET -0.753601 -20.807106 25.115000
					CHANNELS 3 Xrotation Yrotation Zrotation
					JOINT mixamorig:RightToe_End
					{
						OFFSET 0.000299 0.001700 19.918200
						CHANNELS 3 Xrotation Yrotation Zrotation
						End Site
						{
							OFFSET 0.000000 19.918203 0.000000
						}
					}
				}
			}
		}
	}
}
MOTION
Frames: 4
Frame Time: 0.033333
1.688989 121.743301 -49.585846 -26.931907 -0.389102 -1.946121 32.870043 0.314373 1.453770 1.319938 -0.171558 1.300840 1.321419 -0.093242 1.307181 13.681157 0.013745 -1.978090 -26.575411 1.115021 -1.207016 0.000001 -0.000000 0.000000 0.000001 -0.000000 0.000000 0.000001 -0.000000 0.000000 -0.038792 5.658793 -5.139886 24.960431 -38.218689 -51.871363 -0.000028 -78.446908 -0.000020 26.642666 -6.126527 33.784749 0.002226 0.175536 -1.454601 0.005612 0.278476 -2.308214 0.001387 0.138291 -1.146107 -0.000002 -0.000000 -0.000001 9.116475 -2.777050 -7.784345 4.838097 13.365724 2.990607 -0.088141 4.255743 3.752675 0.000004 -0.000000 0.000001 0.002267 0.177468 -1.470587 0.005532 0.276541 -2.292235 0.001390 0.138291 -1.146112 0.000001 0.000002 0.000001 0.002271 0.177464 -1.470585 0.005532 0.276552 -2.292230 0.001393 0.138294 -1.146109 -0.000001 0.000000 0.000001 0.088432 4.230852 -0.963478 -0.010073 -3.777776 -2.802746 0.001380 0.138294 -1.146109 0.000004 0.000000 0.000001 1.104817 1.367095 5.115661 16.124656 15.425065 64.353250 -0.000846 86.273526 0.000856 30.217464 0.873015 -17.194498 0.010827 -0.388446 3.189380 0.004150 -0.240626 1.974769 0.001035 -0.120320 0.987397 0.000002 0.000000 0.000003 11.831306 1.996734 7.072243 23.190114 -10.299808 8.719647 7.817769 -1.589852 1.119439 0.000000 0.000000 -0.000000 0.010825 -0.388443 3.189379 0.004150 -0.240629 1.974771 0.001028 -0.120317 0.987401 -0.000001 0.000000 0.000001 0.010827 -0.388454 3.189379 0.004155 -0.240620 1.974768 0.001024 -0.120309 0.987402 0.000005 -0.000001 -0.000002 0.010827 -0.388444 3.189381 0.004147 -0.240627 1.974772 0.001029 -0.120310 0.987397 -0.000003 0.000000 0.000001 -66.595226 3.659115 5.189527 90.023696 1.637878 5.331763 7.716141 -0.095090 1.250564 -4.233119 0.045621 -0.968547 -0.000000 0.000000 -0.000000 -65.881799 -9.037736 -12.878685 92.327444 -1.443016 -2.538365 0.851816 0.505410 -7.869898 -4.096757 -0.000008 -0.000003 -0.000000 -0.000000 -0.000000 
1.683372 121.710480 -49.414642 -26.901521 -0.371095 -2.001526 32.895922 0.362762 1.643055 1.155454 -0.153125 1.052179 1.156450 -0.090274 1.058416 13.770455 0.008739 -1.847408 -26.313985 1.173098 -1.336972 -0.000000 0.000000 -0.000000 -0.000000 0.000000 -0.000000 -0.000000 0.000000 -0.000000 -0.048727 5.484007 -4.711235 25.113368 -38.246136 -51.986984 -0.000022 -78.412853 -0.000041 26.427865 -6.070828 33.744683 0.002225 0.175535 -1.454600 0.005612 0.278476 -2.308213 0.001385 0.138291 -1.146107 0.000002 0.000000 -0.000001 9.116471 -2.777052 -7.784347 4.838098 13.365726 2.990604 -0.088144 4.255742 3.752676 0.000000 0.000000 0.000001 0.002264 0.177467 -1.470587 0.005540 0.276543 -2.292236 0.001389 0.138292 -1.146111 0.000001 -0.000001 -0.000001 0.002269 0.177464 -1.470583 0.005531 0.276554 -2.292228 0.001394 0.138295 -1.146108 -0.000004 0.000000 0.000002 0.088438 4.230853 -0.963478 -0.010068 -3.777775 -2.802747 0.001385 0.138296 -1.146107 0.000003 -0.000001 -0.000000 1.098372 1.258813 5.743723 16.499673 15.479598 63.891925 0.000508 86.097028 -0.000528 30.137588 1.039264 -17.120822 0.010818 -0.388444 3.189379 0.004150 -0.240628 1.974766 0.001033 -0.120321 0.987400 0.000003 -0.000000 0.000001 11.831301 1.996735 7.072245 23.190116 -10.299803 8.719645 7.817768 -1.589853 1.119440 0.000002 0.000000 -0.000002 0.010816 -0.388443 3.189379 0.004150 -0.240628 1.974773 0.001030 -0.120318 0.987400 0.000002 -0.000001 0.000001 0.010823 -0.388453 3.189376 0.004152 -0.240621 1.974770 0.001025 -0.120308 0.987401 -0.000001 0.000001 0.000000 0.010817 -0.388441 3.189379 0.004141 -0.240625 1.974771 0.001037 -0.120313 0.987397 0.000004 -0.000001 0.000001 -67.030445 3.828774 4.955655 90.107073 1.776209 5.918567 9.400840 -0.091568 0.724711 -5.775255 0.048231 -0.760733 0.000000 0.000000 -0.000000 -66.270436 -9.002315 -12.830778 92.483992 -1.878870 -2.487835 2.085082 0.443056 -8.161608 -4.789800 -0.000013 -0.000002 -0.000000 -0.000002 0.000000 
1.694376 121.640289 -49.357761 -26.934393 -0.315312 -2.011511 32.961400 0.402437 1.797413 1.032284 -0.142453 0.874545 1.032952 -0.090540 0.880858 13.837133 0.008516 -1.763685 -26.124765 1.233178 -1.427507 0.000000 0.000000 -0.000000 0.000000 0.000000 -0.000000 0.000000 0.000000 -0.000000 -0.055028 5.380734 -4.434466 25.277518 -38.281014 -52.018188 0.000043 -78.386960 0.000029 26.225129 -6.001302 33.704033 0.002227 0.175537 -1.454599 0.005615 0.278475 -2.308212 0.001393 0.138292 -1.146107 0.000001 -0.000000 -0.000000 9.116478 -2.777051 -7.784344 4.838098 13.365726 2.990605 -0.088139 4.255742 3.752677 0.000000 -0.000001 0.000002 0.002270 0.177467 -1.470584 0.005539 0.276543 -2.292233 0.001386 0.138293 -1.146109 -0.000000 0.000000 -0.000000 0.002276 0.177466 -1.470585 0.005530 0.276550 -2.292231 0.001394 0.138295 -1.146107 0.000001 0.000000 0.000002 0.088435 4.230852 -0.963477 -0.010069 -3.777775 -2.802747 0.001380 0.138294 -1.146103 -0.000001 -0.000001 -0.000000 1.096152 1.188177 6.174397 16.761436 15.524591 63.592565 -0.000308 85.966011 0.000326 30.076905 1.112066 -17.057964 0.010820 -0.388445 3.189381 0.004144 -0.240626 1.974768 0.001029 -0.120320 0.987399 0.000006 -0.000000 0.000001 11.831305 1.996734 7.072245 23.190120 -10.299805 8.719642 7.817767 -1.589852 1.119440 0.000000 0.000000 0.000001 0.010828 -0.388445 3.189375 0.004145 -0.240627 1.974772 0.001031 -0.120317 0.987402 0.000008 -0.000000 0.000001 0.010823 -0.388454 3.189376 0.004151 -0.240621 1.974768 0.001030 -0.120309 0.987402 -0.000001 -0.000000 0.000001 0.010823 -0.388443 3.189380 0.004142 -0.240627 1.974771 0.001038 -0.120311 0.987397 0.000001 0.000001 0.000000 -67.447961 3.818986 4.805442 90.103275 1.790036 6.162751 11.492641 -0.096153 0.251401 -7.635405 0.033943 -0.461176 0.000000 0.000000 -0.000000 -66.626173 -8.915710 -12.803362 92.599764 -2.162352 -2.501393 3.436347 0.360202 -8.289311 -5.322925 -0.000306 0.187114 -0.000000 0.000001 -0.000000 
1.711017 121.585541 -49.457615 -27.037510 -0.222109 -1.955332 33.042102 0.402078 1.890291 0.930193 -0.139434 0.776282 0.930659 -0.093481 0.782862 13.885337 0.014427 -1.728759 -25.989070 1.307796 -1.484180 0.000000 0.000000 0.000000 0.000000 0.000000 0.000000 0.000000 0.000000 0.000000 -0.056759 5.341801 -4.302307 25.462542 -38.313417 -51.949374 -0.000118 -78.407334 -0.000118 26.033737 -5.940446 33.660665 0.002221 0.175536 -1.454600 0.005611 0.278476 -2.308211 0.001385 0.138288 -1.146108 0.000004 -0.000001 -0.000001 9.116475 -2.777053 -7.784345 4.838100 13.365725 2.990606 -0.088143 4.255742 3.752675 0.000001 0.000000 0.000000 0.002264 0.177466 -1.470586 0.005537 0.276541 -2.292235 0.001387 0.138292 -1.146111 0.000003 -0.000001 -0.000001 0.002273 0.177465 -1.470586 0.005530 0.276552 -2.292230 0.001391 0.138293 -1.146110 -0.000000 0.000001 0.000000 0.088433 4.230851 -0.963479 -0.010070 -3.777774 -2.802746 0.001377 0.138294 -1.146105 -0.000002 -0.000000 0.000000 1.095707 1.154858 6.379986 16.921037 15.570036 63.472142 -0.000159 85.916977 0.000167 30.037707 1.129253 -16.997747 0.010815 -0.388444 3.189382 0.004147 -0.240625 1.974770 0.001033 -0.120322 0.987398 0.000005 -0.000001 0.000000 11.831306 1.996735 7.072243 23.190120 -10.299805 8.719648 7.817770 -1.589854 1.119448 0.000000 0.000000 0.000002 0.010823 -0.388443 3.189376 0.004153 -0.240628 1.974771 0.001027 -0.120316 0.987400 0.000003 -0.000001 0.000000 0.010825 -0.388453 3.189377 0.004154 -0.240622 1.974770 0.001026 -0.120310 0.987402 -0.000002 -0.000000 -0.000001 0.010822 -0.388442 3.189379 0.004145 -0.240624 1.974771 0.001032 -0.120311 0.987399 0.000002 0.000001 -0.000001 -67.527198 3.839835 4.734743 90.006437 1.725518 6.182705 12.488247 -0.099434 0.052460 -8.493745 0.020722 -0.255413 -0.000000 0.000000 0.000000 -66.794394 -8.851898 -12.850022 92.614524 -2.251573 -2.573703 4.369687 0.297330 -8.314694 -5.609225 -0.012958 1.228738 -0.000000 -0.000001 0.000000 
